<?xml version="1.0" encoding="UTF-8" standalone="no"?>
<!DOCTYPE svg PUBLIC "-//W3C//DTD SVG 1.1//EN" "http://www.w3.org/Graphics/SVG/1.1/DTD/svg11.dtd">
<svg width="100%" height="100%" viewBox="0 0 969 969" version="1.1" xmlns="http://www.w3.org/2000/svg" xmlns:xlink="http://www.w3.org/1999/xlink" xml:space="preserve" xmlns:serif="http://www.serif.com/" style="fill-rule:evenodd;clip-rule:evenodd;stroke-linejoin:round;stroke-miterlimit:2;">
    <g transform="matrix(1,0,0,1,-806.116,-1812.22)">
        <g transform="matrix(0.960523,0,0,0.960523,802.523,1872.45)">
            <circle cx="508.037" cy="441.595" r="504.296" style="fill:white;"/>
        </g>
        <g transform="matrix(1,0,0,1,-22.1059,0)">
            <g transform="matrix(0.0873765,0,0,0.0873765,1457.66,2480.09)">
                <circle cx="508.037" cy="441.595" r="504.296" style="fill:rgb(255,148,0);"/>
            </g>
            <g transform="matrix(2.38687,0,0,2.38687,-256.268,846.909)">
                <path d="M636.861,718.862C619.23,718.862 603.594,715.103 589.952,707.587C576.311,700.07 566.521,689.909 560.582,677.103C559.84,675.804 559.469,674.319 559.469,672.649C559.469,670.05 560.443,667.87 562.392,666.106C564.34,664.343 566.985,663.462 570.326,663.462C572.553,663.462 574.641,664.065 576.59,665.271C578.538,666.478 579.977,668.194 580.905,670.421C585.173,678.773 592.272,685.501 602.202,690.605C612.131,695.709 623.684,698.261 636.861,698.261C652.08,698.261 664.329,694.595 673.609,687.264C682.889,679.933 687.529,669.679 687.529,656.502C687.529,644.809 683.214,634.973 674.583,626.992C665.953,619.012 653.008,613.908 635.748,611.681C614.219,609.083 597.283,602.355 584.941,591.498C572.599,580.64 566.428,567.324 566.428,551.548C566.428,540.413 569.444,530.623 575.476,522.178C581.508,513.734 589.86,507.238 600.531,502.691C611.203,498.144 623.313,495.87 636.861,495.87C651.523,495.87 664.422,499.118 675.558,505.614C686.693,512.11 695.416,520.554 701.727,530.947C703.026,532.989 703.675,535.216 703.675,537.629C703.675,541.155 702.005,543.939 698.664,545.981C697.18,546.723 695.509,547.094 693.653,547.094C691.612,547.094 689.709,546.584 687.946,545.563C686.183,544.542 684.745,543.104 683.631,541.248C673.238,524.916 657.555,516.657 636.583,516.471C621.55,516.471 609.672,519.626 600.949,525.936C592.226,532.247 587.865,541.248 587.865,552.94C587.865,574.655 605.403,587.832 640.48,592.472C663.494,595.813 680.662,602.865 691.983,613.63C703.304,624.394 708.965,638.592 708.965,656.224C708.965,669.215 705.81,680.444 699.499,689.909C693.189,699.374 684.559,706.566 673.609,711.484C662.659,716.402 650.41,718.862 636.861,718.862Z" style="fill-rule:nonzero;"/>
            </g>
        </g>
    </g>
</svg>
