<?xml version="1.0" encoding="UTF-8" standalone="no"?>
<!DOCTYPE svg PUBLIC "-//W3C//DTD SVG 1.1//EN" "http://www.w3.org/Graphics/SVG/1.1/DTD/svg11.dtd">
<svg width="100%" height="100%" viewBox="0 0 1487 1483" version="1.1" xmlns="http://www.w3.org/2000/svg" xmlns:xlink="http://www.w3.org/1999/xlink" xml:space="preserve" xmlns:serif="http://www.serif.com/" style="fill-rule:evenodd;clip-rule:evenodd;stroke-linecap:round;stroke-linejoin:round;stroke-miterlimit:1.5;">
    <g transform="matrix(1,0,0,1,-690.686,-925.641)">
        <g transform="matrix(6.18449,0,0,6.18449,-3929.39,-5107.64)">
            <path d="M867.262,978.583C899.137,978.583 925.016,1004.46 925.016,1036.34C925.016,1068.21 899.137,1094.09 867.262,1094.09C835.387,1094.09 809.509,1068.21 809.509,1036.34C809.509,1004.46 835.387,978.583 867.262,978.583ZM867.262,987.403C840.255,987.403 818.329,1009.33 818.329,1036.34C818.329,1063.34 840.255,1085.27 867.262,1085.27C894.269,1085.27 916.196,1063.34 916.196,1036.34C916.196,1009.33 894.269,987.403 867.262,987.403Z" style="fill:rgb(0,0,0);stroke:rgb(0,0,0);stroke-width:6.06px;"/>
        </g>
        <g transform="matrix(5.95337,0,0,40.6283,-3667.28,-48388.5)">
            <path d="M732.016,1250.29C732.016,1241.4 787.975,1234.17 856.901,1234.17C925.827,1234.17 981.787,1241.4 981.787,1250.29L966.365,1250.29C966.365,1242.49 917.316,1236.16 856.901,1236.16C796.487,1236.16 747.437,1242.49 747.437,1250.29L732.016,1250.29Z" style="fill:rgb(0,0,0);"/>
        </g>
    </g>
</svg>
