<?xml version="1.0" encoding="UTF-8" standalone="no"?>
<!DOCTYPE svg PUBLIC "-//W3C//DTD SVG 1.1//EN" "http://www.w3.org/Graphics/SVG/1.1/DTD/svg11.dtd">
<svg width="100%" height="100%" viewBox="0 0 573 488" version="1.1" xmlns="http://www.w3.org/2000/svg" xmlns:xlink="http://www.w3.org/1999/xlink" xml:space="preserve" xmlns:serif="http://www.serif.com/" style="fill-rule:evenodd;clip-rule:evenodd;stroke-linejoin:round;stroke-miterlimit:2;">
    <g transform="matrix(1,0,0,1,-396.715,-1622.8)">
        <g transform="matrix(0.708565,0,0,0.708565,-49.024,1273.5)">
            <path d="M770.3,644.519L673.072,644.519C682.561,730.515 726.24,823.845 836.763,915.299C836.968,915.465 837.172,915.634 837.374,915.804C837.624,916.01 837.873,916.216 838.123,916.422L838.1,916.455C842.388,920.47 845.069,926.181 845.069,932.513C845.069,944.655 835.211,954.512 823.069,954.512C818.424,954.512 814.112,953.069 810.559,950.607C706.649,889.918 651.639,785.123 629.873,628.412C629.352,626.537 629.073,624.56 629.073,622.519C629.073,610.377 638.931,600.519 651.073,600.519L763.33,600.519C761.191,582.312 760.069,564.471 760.069,547.206L760.069,492.963L1313.35,492.963L1313.35,547.206C1313.33,565.467 1312.8,583.225 1311.73,600.519L1415.47,600.519C1427.61,600.519 1437.47,610.377 1437.47,622.519C1437.47,624.56 1437.19,626.537 1436.67,628.412C1414.9,785.123 1359.89,889.918 1255.98,950.607C1252.43,953.069 1248.12,954.512 1243.47,954.512C1231.33,954.512 1221.47,944.655 1221.47,932.513C1221.47,926.181 1224.15,920.47 1228.44,916.455L1228.42,916.422C1228.67,916.216 1228.92,916.01 1229.17,915.804C1229.37,915.634 1229.58,915.465 1229.78,915.299C1340.3,823.845 1383.98,730.515 1393.47,644.519L1307.73,644.519C1283.26,845.561 1177.4,982.964 959.504,1126.48L1117.55,1126.48L1067.71,1094.6L1106.89,1061.55L1249.52,1128.82C1259.18,1133.09 1265.92,1142.76 1265.92,1153.99C1265.92,1169.17 1253.6,1181.5 1238.42,1181.5L826.635,1181.5C811.453,1181.5 799.127,1169.17 799.127,1153.99C799.127,1140.36 809.06,1129.04 822.075,1126.86C1069.26,1034.71 1258.4,811.008 1258.4,547.206L817,547.206C817,676.891 872.537,854.773 978.398,943.183C1047.84,922.974 1098.37,881.143 1142.48,831.984C1106.29,900.967 1051.66,963.249 975.686,1017.77C884.34,947.529 799.031,789.957 770.3,644.519Z" style="fill:rgb(0,0,0);"/>
        </g>
    </g>
</svg>
