<?xml version="1.0" encoding="UTF-8" standalone="no"?>
<!DOCTYPE svg PUBLIC "-//W3C//DTD SVG 1.1//EN" "http://www.w3.org/Graphics/SVG/1.1/DTD/svg11.dtd">
<svg width="100%" height="100%" viewBox="0 0 402 447" version="1.1" xmlns="http://www.w3.org/2000/svg" xmlns:xlink="http://www.w3.org/1999/xlink" xml:space="preserve" xmlns:serif="http://www.serif.com/" style="fill-rule:evenodd;clip-rule:evenodd;stroke-linejoin:round;stroke-miterlimit:2;">
    <g transform="matrix(1,0,0,1,-1021.95,-930.06)">
        <path d="M1022,1237.49C1022,1094.51 1016.88,1112.14 1117.98,1011.04L1117.93,1011.15L1182.26,946.829C1204.62,924.47 1240.92,924.47 1263.28,946.829L1327.53,1011.08L1327.52,1011.04C1415.9,1099.43 1423.11,1097.07 1423.53,1190.61C1423.54,1191.04 1423.55,1191.47 1423.55,1191.91L1423.55,1329.28C1423.55,1355.23 1402.48,1376.3 1376.52,1376.3C1375.69,1376.3 1374.87,1376.28 1374.06,1376.24C1373.43,1376.28 1372.8,1376.3 1372.16,1376.3L1310.21,1376.3C1294.9,1376.3 1282.48,1363.88 1282.48,1348.57L1282.48,1263.71C1282.48,1247.95 1269.68,1235.15 1253.91,1235.15L1191.63,1235.15C1175.87,1235.15 1163.07,1247.95 1163.07,1263.71L1163.07,1348.57C1163.07,1363.88 1150.64,1376.3 1135.34,1376.3L1073.38,1376.3C1072.74,1376.3 1072.11,1376.28 1071.49,1376.24C1070.67,1376.28 1069.85,1376.3 1069.02,1376.3C1043.07,1376.3 1022,1355.23 1022,1329.28L1022,1237.49Z" style="fill:rgb(0,0,0);"/>
    </g>
</svg>
