<?xml version="1.0" encoding="UTF-8" standalone="no"?>
<!DOCTYPE svg PUBLIC "-//W3C//DTD SVG 1.1//EN" "http://www.w3.org/Graphics/SVG/1.1/DTD/svg11.dtd">
<svg width="100%" height="100%" viewBox="0 0 1079 286" version="1.1" xmlns="http://www.w3.org/2000/svg" xmlns:xlink="http://www.w3.org/1999/xlink" xml:space="preserve" xmlns:serif="http://www.serif.com/" style="fill-rule:evenodd;clip-rule:evenodd;stroke-linejoin:round;stroke-miterlimit:2;">
    <g transform="matrix(1,0,0,1,-1272.58,-1315.54)">
        <g transform="matrix(1,0,0,1,690.19,661.729)">
            <g transform="matrix(1,0,0,1,35.2384,-6.75526)">
                <g transform="matrix(1,0,0,1,-12.3137,164.698)">
                    <path d="M636.861,718.862C619.23,718.862 603.594,715.103 589.952,707.587C576.311,700.07 566.521,689.909 560.582,677.103C559.84,675.804 559.469,674.319 559.469,672.649C559.469,670.05 560.443,667.87 562.392,666.106C564.34,664.343 566.985,663.462 570.326,663.462C572.553,663.462 574.641,664.065 576.59,665.271C578.538,666.478 579.977,668.194 580.905,670.421C585.173,678.773 592.272,685.501 602.202,690.605C612.131,695.709 623.684,698.261 636.861,698.261C652.08,698.261 664.329,694.595 673.609,687.264C682.889,679.933 687.529,669.679 687.529,656.502C687.529,644.809 683.214,634.973 674.583,626.992C665.953,619.012 653.008,613.908 635.748,611.681C614.219,609.083 597.283,602.355 584.941,591.498C572.599,580.64 566.428,567.324 566.428,551.548C566.428,540.413 569.444,530.623 575.476,522.178C581.508,513.734 589.86,507.238 600.531,502.691C611.203,498.144 623.313,495.87 636.861,495.87C651.523,495.87 664.422,499.118 675.558,505.614C686.693,512.11 695.416,520.554 701.727,530.947C703.026,532.989 703.675,535.216 703.675,537.629C703.675,541.155 702.005,543.939 698.664,545.981C697.18,546.723 695.509,547.094 693.653,547.094C691.612,547.094 689.709,546.584 687.946,545.563C686.183,544.542 684.745,543.104 683.631,541.248C673.238,524.916 657.555,516.657 636.583,516.471C621.55,516.471 609.672,519.626 600.949,525.936C592.226,532.247 587.865,541.248 587.865,552.94C587.865,574.655 605.403,587.832 640.48,592.472C663.494,595.813 680.662,602.865 691.983,613.63C703.304,624.394 708.965,638.592 708.965,656.224C708.965,669.215 705.81,680.444 699.499,689.909C693.189,699.374 684.559,706.566 673.609,711.484C662.659,716.402 650.41,718.862 636.861,718.862Z" style="fill-rule:nonzero;"/>
                </g>
                <g id="P">
                    <g transform="matrix(0.911364,0,0,1.12448,65.7164,-118.732)">
                        <path d="M794.777,867.177C803.755,871.046 813.998,873.239 824.867,873.239C860.32,873.239 889.103,849.911 889.103,821.177C889.103,792.444 860.32,769.116 824.867,769.116C789.415,769.116 760.632,792.444 760.632,821.177L760.632,937.218C760.632,942.487 755.835,946.766 749.926,946.766C744.017,946.766 739.22,942.487 739.22,937.218L739.22,821.177C739.22,815.609 739.957,810.192 741.348,805.001C741.453,804.877 741.56,804.755 741.671,804.635C750.836,774.3 784.63,751.762 824.867,751.762C872.138,751.762 910.515,782.866 910.515,821.177C910.515,859.489 872.138,890.592 824.867,890.592C810.094,890.592 796.188,887.554 784.052,882.207C783.034,881.759 782.028,881.294 781.035,880.813C788.837,879.737 794.785,874.226 794.785,867.598C794.785,867.457 794.783,867.317 794.777,867.177Z"/>
                    </g>
                    <g transform="matrix(-0.705336,0,0,0.705336,1690.89,308.748)">
                        <circle cx="1298.54" cy="777.106" r="12.796"/>
                    </g>
                    <g transform="matrix(-1.17801,0,0,1.17801,2304.67,-58.567)">
                        <circle cx="1298.54" cy="777.106" r="7.662"/>
                    </g>
                </g>
                <g id="K">
                    <g transform="matrix(1.07864,0,0,1.02711,-101.32,-25.8441)">
                        <path d="M1289.98,779.057L1289.98,681.195C1289.98,675.554 1294.34,670.974 1299.71,670.974C1305.08,670.974 1309.44,675.554 1309.44,681.195L1309.44,769.863C1308.62,769.759 1307.79,769.706 1306.95,769.706C1299.92,769.706 1293.7,773.408 1289.98,779.057ZM1311.74,770.296L1384.44,693.948C1388.24,689.96 1394.41,689.96 1398.21,693.948C1402.01,697.937 1402.01,704.414 1398.21,708.403L1326.31,783.904C1323.95,777.16 1318.49,771.986 1311.74,770.296ZM1327.52,792.908L1398.21,867.141C1402.01,871.13 1402.01,877.607 1398.21,881.596C1394.41,885.585 1388.24,885.585 1384.44,881.596L1316.7,810.452C1322.76,807.026 1327.01,800.505 1327.52,792.908ZM1309.44,812.867L1309.44,872.504C1309.44,878.145 1305.08,882.725 1299.71,882.725C1294.34,882.725 1289.98,878.145 1289.98,872.504L1289.98,803.674C1293.7,809.322 1299.92,813.025 1306.95,813.025C1307.79,813.025 1308.62,812.971 1309.44,812.867Z"/>
                    </g>
                    <g transform="matrix(1.04798,0,0,1.04798,-52.438,-27.4172)">
                        <circle cx="1298.54" cy="777.106" r="12.617"/>
                    </g>
                </g>
                <g id="A" transform="matrix(-1,0,0,1,1986.99,1.14208)">
                    <g transform="matrix(0.911364,0,0,0.696618,65.7164,223.19)">
                        <path d="M780.872,930.852C781.918,931.673 782.978,932.466 784.052,933.23C796.188,941.861 810.094,946.766 824.867,946.766C872.138,946.766 910.515,896.558 910.515,834.716C910.515,772.874 872.138,722.666 824.867,722.666C785.788,722.666 752.786,756.982 742.523,803.818C742.219,805.206 741.935,806.604 741.671,808.013C740.069,816.572 739.22,825.515 739.22,834.716L739.22,937.218C739.22,942.487 744.017,946.766 749.926,946.766C755.835,946.766 760.632,942.487 760.632,937.218L760.632,834.716C760.632,788.334 789.415,750.678 824.867,750.678C860.32,750.678 889.103,788.334 889.103,834.716C889.103,881.097 860.32,918.753 824.867,918.753C813.943,918.753 803.651,915.177 794.64,908.872C794.647,909.126 794.65,909.381 794.65,909.637C794.65,920.319 788.681,929.192 780.872,930.852Z"/>
                    </g>
                    <g transform="matrix(0.705336,0,0,0.705336,-140.949,308.739)">
                        <circle cx="1298.54" cy="777.106" r="12.796"/>
                    </g>
                </g>
                <g transform="matrix(0.656808,0.30512,-0.783166,1.68586,1160.36,-1010.44)">
                    <path d="M1511.48,843.446L1359.4,794.393C1353.6,792.525 1352.79,789.176 1357.59,786.919C1362.38,784.662 1370.98,784.347 1376.77,786.215L1511.48,829.663L1511.48,763.058C1511.48,760.128 1517.59,757.749 1525.11,757.749C1532.63,757.749 1538.73,760.128 1538.73,763.058L1538.73,878.558C1538.73,881.488 1532.63,883.867 1525.11,883.867C1517.59,883.867 1511.48,881.488 1511.48,878.558L1511.48,843.446Z"/>
                </g>
                <g transform="matrix(1.43703,0,0,1.43703,-396.46,-386.57)">
                    <path d="M976.22,774.643C985.954,774.643 994.57,776.912 1002.07,781.45C1009.57,785.988 1015.39,792.27 1019.53,800.294C1023.67,808.318 1025.75,817.46 1025.75,827.72C1025.75,829.825 1025.09,831.502 1023.77,832.752C1022.46,834.001 1020.75,834.626 1018.64,834.626L938.928,834.626C939.98,845.412 944.189,854.16 951.556,860.869C958.922,867.577 968.13,870.932 979.179,870.932C983.915,870.932 988.683,870.109 993.485,868.465C998.286,866.821 1002.13,864.749 1005.03,862.25C1006.74,860.934 1008.51,860.277 1010.36,860.277C1011.8,860.277 1013.25,860.803 1014.7,861.855C1016.41,863.434 1017.26,865.209 1017.26,867.183C1017.26,868.893 1016.54,870.405 1015.09,871.721C1010.75,875.404 1005.23,878.462 998.516,880.896C991.807,883.329 985.362,884.546 979.179,884.546C968.656,884.546 959.251,882.211 950.964,877.541C942.677,872.872 936.198,866.36 931.528,858.008C926.859,849.655 924.524,840.217 924.524,829.693C924.524,819.038 926.727,809.534 931.134,801.182C935.54,792.829 941.657,786.317 949.484,781.648C957.311,776.978 966.223,774.643 976.22,774.643ZM976.22,788.258C966.223,788.258 957.935,791.349 951.358,797.531C944.781,803.714 940.769,811.869 939.322,821.998L1011.54,821.998C1010.49,811.869 1006.8,803.714 1000.49,797.531C994.175,791.349 986.085,788.258 976.22,788.258Z" style="fill-rule:nonzero;"/>
                </g>
                <g transform="matrix(1,0,0,1,-0.560877,-8.41241)">
                    <circle cx="1600.4" cy="882.725" r="25.507" style="fill:rgb(255,148,0);"/>
                </g>
            </g>
        </g>
    </g>
</svg>
